<svg width="1629" height="298" viewBox="0 0 1629 298" fill="none" xmlns="http://www.w3.org/2000/svg">
<path d="M363.48 230V69H394.99V201.25H465.83V230H363.48ZM468.385 230V115H498.745V230H468.385ZM483.565 96.37C478.965 96.37 474.902 94.6833 471.375 91.31C467.848 87.7833 466.085 83.6433 466.085 78.89C466.085 74.1367 467.848 70.0733 471.375 66.7C474.902 63.1733 478.965 61.41 483.565 61.41C488.318 61.41 492.382 63.1733 495.755 66.7C499.282 70.0733 501.045 74.1367 501.045 78.89C501.045 83.6433 499.282 87.7833 495.755 91.31C492.382 94.6833 488.318 96.37 483.565 96.37ZM566.07 232.76C554.11 232.76 543.454 230.23 534.1 225.17C524.747 219.957 517.464 212.827 512.25 203.78C507.037 194.58 504.43 184.153 504.43 172.5C504.43 160.693 507.037 150.267 512.25 141.22C517.464 132.173 524.67 125.12 533.87 120.06C543.07 114.847 553.65 112.24 565.61 112.24C577.11 112.24 587.614 115.077 597.12 120.75C606.627 126.423 613.527 134.627 617.82 145.36L589.3 155.48C587.154 151.033 583.78 147.507 579.18 144.9C574.734 142.14 569.75 140.76 564.23 140.76C558.557 140.76 553.574 142.14 549.28 144.9C544.987 147.507 541.614 151.187 539.16 155.94C536.707 160.693 535.48 166.213 535.48 172.5C535.48 178.787 536.707 184.307 539.16 189.06C541.614 193.66 545.064 197.34 549.51 200.1C553.957 202.86 559.017 204.24 564.69 204.24C570.21 204.24 575.194 202.783 579.64 199.87C584.24 196.957 587.614 193.123 589.76 188.37L618.51 198.49C614.064 209.377 607.087 217.81 597.58 223.79C588.227 229.77 577.724 232.76 566.07 232.76ZM620.327 230V69H650.687V230H620.327ZM696.687 230V171.12H727.047V230H696.687ZM696.687 171.12C696.687 163.3 695.767 157.243 693.927 152.95C692.087 148.657 689.557 145.59 686.337 143.75C683.117 141.757 679.36 140.76 675.067 140.76C667.247 140.607 661.19 142.983 656.897 147.89C652.757 152.797 650.687 160.08 650.687 169.74H640.567C640.567 157.473 642.33 147.123 645.857 138.69C649.537 130.103 654.597 123.587 661.037 119.14C667.63 114.54 675.297 112.24 684.037 112.24C693.237 112.24 700.98 114.08 707.267 117.76C713.707 121.44 718.614 127.19 721.987 135.01C725.36 142.677 727.047 152.643 727.047 164.91V171.12H696.687ZM787.149 232.76C775.802 232.76 765.759 230.23 757.019 225.17C748.279 219.957 741.379 212.827 736.319 203.78C731.412 194.733 728.959 184.307 728.959 172.5C728.959 160.693 731.489 150.267 736.549 141.22C741.762 132.173 748.816 125.12 757.709 120.06C766.756 114.847 777.106 112.24 788.759 112.24C798.879 112.24 808.156 114.923 816.589 120.29C825.176 125.503 831.999 133.247 837.059 143.52C842.272 153.64 844.879 165.983 844.879 180.55H757.709L760.469 177.79C760.469 183.463 761.849 188.447 764.609 192.74C767.522 196.88 771.202 200.1 775.649 202.4C780.249 204.547 785.156 205.62 790.369 205.62C796.656 205.62 801.792 204.317 805.779 201.71C809.766 198.95 812.832 195.423 814.979 191.13L842.119 201.71C838.899 208.15 834.682 213.747 829.469 218.5C824.409 223.1 818.352 226.627 811.299 229.08C804.246 231.533 796.196 232.76 787.149 232.76ZM762.079 160.77L759.319 158.01H814.749L812.219 160.77C812.219 155.25 810.916 150.88 808.309 147.66C805.702 144.287 802.482 141.833 798.649 140.3C794.969 138.767 791.366 138 787.839 138C784.312 138 780.556 138.767 776.569 140.3C772.582 141.833 769.132 144.287 766.219 147.66C763.459 150.88 762.079 155.25 762.079 160.77ZM889.433 232.76C882.073 232.76 875.173 231.687 868.733 229.54C862.293 227.24 856.619 224.02 851.713 219.88C846.806 215.587 842.973 210.373 840.213 204.24L866.203 192.28C868.503 195.96 871.646 199.18 875.633 201.94C879.619 204.547 884.219 205.85 889.433 205.85C894.493 205.85 898.403 205.16 901.163 203.78C903.923 202.247 905.303 200.1 905.303 197.34C905.303 194.58 904.153 192.587 901.853 191.36C899.706 189.98 896.716 188.83 892.883 187.91L882.303 185.15C871.263 182.237 862.523 177.637 856.083 171.35C849.796 164.91 846.653 157.55 846.653 149.27C846.653 137.463 850.409 128.34 857.923 121.9C865.589 115.46 876.399 112.24 890.353 112.24C897.559 112.24 904.229 113.313 910.363 115.46C916.649 117.607 922.016 120.597 926.463 124.43C930.909 128.263 933.976 132.71 935.663 137.77L910.593 149.27C909.519 146.203 906.913 143.75 902.773 141.91C898.633 139.917 894.493 138.92 890.353 138.92C886.213 138.92 882.993 139.84 880.693 141.68C878.546 143.367 877.473 145.743 877.473 148.81C877.473 150.803 878.546 152.49 880.693 153.87C882.839 155.097 885.906 156.17 889.893 157.09L904.843 160.77C912.356 162.61 918.336 165.6 922.783 169.74C927.383 173.727 930.679 178.25 932.673 183.31C934.819 188.217 935.893 193.047 935.893 197.8C935.893 204.7 933.823 210.833 929.683 216.2C925.696 221.413 920.176 225.477 913.123 228.39C906.223 231.303 898.326 232.76 889.433 232.76ZM980.247 232.76C972.887 232.76 965.987 231.687 959.547 229.54C953.107 227.24 947.433 224.02 942.527 219.88C937.62 215.587 933.787 210.373 931.027 204.24L957.017 192.28C959.317 195.96 962.46 199.18 966.447 201.94C970.433 204.547 975.033 205.85 980.247 205.85C985.307 205.85 989.217 205.16 991.977 203.78C994.737 202.247 996.117 200.1 996.117 197.34C996.117 194.58 994.967 192.587 992.667 191.36C990.52 189.98 987.53 188.83 983.697 187.91L973.117 185.15C962.077 182.237 953.337 177.637 946.897 171.35C940.61 164.91 937.467 157.55 937.467 149.27C937.467 137.463 941.223 128.34 948.737 121.9C956.403 115.46 967.213 112.24 981.167 112.24C988.373 112.24 995.043 113.313 1001.18 115.46C1007.46 117.607 1012.83 120.597 1017.28 124.43C1021.72 128.263 1024.79 132.71 1026.48 137.77L1001.41 149.27C1000.33 146.203 997.727 143.75 993.587 141.91C989.447 139.917 985.307 138.92 981.167 138.92C977.027 138.92 973.807 139.84 971.507 141.68C969.36 143.367 968.287 145.743 968.287 148.81C968.287 150.803 969.36 152.49 971.507 153.87C973.653 155.097 976.72 156.17 980.707 157.09L995.657 160.77C1003.17 162.61 1009.15 165.6 1013.6 169.74C1018.2 173.727 1021.49 178.25 1023.49 183.31C1025.63 188.217 1026.71 193.047 1026.71 197.8C1026.71 204.7 1024.64 210.833 1020.5 216.2C1016.51 221.413 1010.99 225.477 1003.94 228.39C997.037 231.303 989.14 232.76 980.247 232.76ZM1055.19 230V97.75H1006.89V69H1134.77V97.75H1086.7V230H1055.19ZM1138.42 169.51C1138.42 157.09 1140.8 146.817 1145.55 138.69C1150.46 130.563 1156.67 124.507 1164.18 120.52C1171.85 116.533 1179.82 114.54 1188.1 114.54V143.98C1181.05 143.98 1174.38 144.823 1168.09 146.51C1161.96 148.197 1156.98 150.957 1153.14 154.79C1149.31 158.623 1147.39 163.53 1147.39 169.51H1138.42ZM1117.03 230V115H1147.39V230H1117.03ZM1240.06 232.76C1228.71 232.76 1218.67 230.23 1209.93 225.17C1201.19 219.957 1194.29 212.827 1189.23 203.78C1184.32 194.733 1181.87 184.307 1181.87 172.5C1181.87 160.693 1184.4 150.267 1189.46 141.22C1194.67 132.173 1201.73 125.12 1210.62 120.06C1219.67 114.847 1230.02 112.24 1241.67 112.24C1251.79 112.24 1261.07 114.923 1269.5 120.29C1278.09 125.503 1284.91 133.247 1289.97 143.52C1295.18 153.64 1297.79 165.983 1297.79 180.55H1210.62L1213.38 177.79C1213.38 183.463 1214.76 188.447 1217.52 192.74C1220.43 196.88 1224.11 200.1 1228.56 202.4C1233.16 204.547 1238.07 205.62 1243.28 205.62C1249.57 205.62 1254.7 204.317 1258.69 201.71C1262.68 198.95 1265.74 195.423 1267.89 191.13L1295.03 201.71C1291.81 208.15 1287.59 213.747 1282.38 218.5C1277.32 223.1 1271.26 226.627 1264.21 229.08C1257.16 231.533 1249.11 232.76 1240.06 232.76ZM1214.99 160.77L1212.23 158.01H1267.66L1265.13 160.77C1265.13 155.25 1263.83 150.88 1261.22 147.66C1258.61 144.287 1255.39 141.833 1251.56 140.3C1247.88 138.767 1244.28 138 1240.75 138C1237.22 138 1233.47 138.767 1229.48 140.3C1225.49 141.833 1222.04 144.287 1219.13 147.66C1216.37 150.88 1214.99 155.25 1214.99 160.77ZM1299.33 230V115H1327.85L1329.69 136.16V230H1299.33ZM1375.46 230V171.12H1405.82V230H1375.46ZM1375.46 171.12C1375.46 163.3 1374.54 157.243 1372.7 152.95C1371.02 148.657 1368.56 145.59 1365.34 143.75C1362.12 141.757 1358.37 140.76 1354.07 140.76C1346.25 140.607 1340.2 142.983 1335.9 147.89C1331.76 152.797 1329.69 160.08 1329.69 169.74H1319.57C1319.57 157.473 1321.34 147.123 1324.86 138.69C1328.54 130.103 1333.6 123.587 1340.04 119.14C1346.64 114.54 1354.3 112.24 1363.04 112.24C1372.09 112.24 1379.83 114.08 1386.27 117.76C1392.71 121.44 1397.62 127.19 1400.99 135.01C1404.37 142.677 1405.98 152.643 1405.82 164.91V171.12H1375.46ZM1495.84 230L1494.23 208.61V69H1524.59V230H1495.84ZM1459.73 232.76C1449.15 232.76 1439.95 230.307 1432.13 225.4C1424.46 220.493 1418.48 213.517 1414.19 204.47C1409.89 195.423 1407.75 184.767 1407.75 172.5C1407.75 160.08 1409.89 149.423 1414.19 140.53C1418.48 131.483 1424.46 124.507 1432.13 119.6C1439.95 114.693 1449.15 112.24 1459.73 112.24C1469.39 112.24 1477.51 114.693 1484.11 119.6C1490.85 124.507 1495.99 131.483 1499.52 140.53C1503.04 149.423 1504.81 160.08 1504.81 172.5C1504.81 184.767 1503.04 195.423 1499.52 204.47C1495.99 213.517 1490.85 220.493 1484.11 225.4C1477.51 230.307 1469.39 232.76 1459.73 232.76ZM1467.55 204.93C1472.76 204.93 1477.36 203.55 1481.35 200.79C1485.49 198.03 1488.71 194.197 1491.01 189.29C1493.31 184.383 1494.46 178.787 1494.46 172.5C1494.46 166.213 1493.31 160.617 1491.01 155.71C1488.71 150.803 1485.49 147.047 1481.35 144.44C1477.36 141.68 1472.68 140.3 1467.32 140.3C1461.8 140.3 1456.97 141.68 1452.83 144.44C1448.69 147.047 1445.39 150.803 1442.94 155.71C1440.48 160.617 1439.26 166.213 1439.26 172.5C1439.26 178.787 1440.48 184.383 1442.94 189.29C1445.39 194.197 1448.69 198.03 1452.83 200.79C1457.12 203.55 1462.03 204.93 1467.55 204.93ZM1577.65 232.76C1570.29 232.76 1563.39 231.687 1556.95 229.54C1550.51 227.24 1544.84 224.02 1539.93 219.88C1535.03 215.587 1531.19 210.373 1528.43 204.24L1554.42 192.28C1556.72 195.96 1559.87 199.18 1563.85 201.94C1567.84 204.547 1572.44 205.85 1577.65 205.85C1582.71 205.85 1586.62 205.16 1589.38 203.78C1592.14 202.247 1593.52 200.1 1593.52 197.34C1593.52 194.58 1592.37 192.587 1590.07 191.36C1587.93 189.98 1584.94 188.83 1581.1 187.91L1570.52 185.15C1559.48 182.237 1550.74 177.637 1544.3 171.35C1538.02 164.91 1534.87 157.55 1534.87 149.27C1534.87 137.463 1538.63 128.34 1546.14 121.9C1553.81 115.46 1564.62 112.24 1578.57 112.24C1585.78 112.24 1592.45 113.313 1598.58 115.46C1604.87 117.607 1610.24 120.597 1614.68 124.43C1619.13 128.263 1622.2 132.71 1623.88 137.77L1598.81 149.27C1597.74 146.203 1595.13 143.75 1590.99 141.91C1586.85 139.917 1582.71 138.92 1578.57 138.92C1574.43 138.92 1571.21 139.84 1568.91 141.68C1566.77 143.367 1565.69 145.743 1565.69 148.81C1565.69 150.803 1566.77 152.49 1568.91 153.87C1571.06 155.097 1574.13 156.17 1578.11 157.09L1593.06 160.77C1600.58 162.61 1606.56 165.6 1611 169.74C1615.6 173.727 1618.9 178.25 1620.89 183.31C1623.04 188.217 1624.11 193.047 1624.11 197.8C1624.11 204.7 1622.04 210.833 1617.9 216.2C1613.92 221.413 1608.4 225.477 1601.34 228.39C1594.44 231.303 1586.55 232.76 1577.65 232.76Z" fill="black"/>
<rect x="6.5" y="6.5" width="284" height="284" stroke="black" stroke-width="13"/>
<path d="M145.02 74.279C135.187 75.1781 125.703 80.3698 117.64 89.274C108.968 98.8453 100.934 113.057 91.0723 136.173C78.0206 166.83 73.322 175.213 64.0987 184.465C54.8175 193.804 45.5362 198.387 32.1944 200.272C27.8148 200.91 26.8287 201.142 25.0595 202.012C19.7227 204.623 16.7933 210.278 17.1994 217.21C17.6055 224.374 21.521 229.305 28.1339 231.016C30.9763 231.77 38.3432 231.48 43.2159 230.436C50.3219 228.928 60.4152 225.157 66.7381 221.59C73.873 217.587 79.0357 213.643 85.1556 207.552C93.6827 198.996 99.8315 190.237 107.228 176.054C110.65 169.499 113.144 163.988 123.035 141.249C131.649 121.439 138.32 110.882 144.149 107.866C145.803 107.024 146.325 106.879 148.21 106.879C151.168 106.879 153.518 108.011 156.215 110.737C162.016 116.596 166.541 125.094 180.114 155.606C196.095 191.571 208.654 208.422 228.232 220.256C239.369 227.014 253.436 231.451 263.53 231.451C269.185 231.451 272.695 230.233 275.74 227.217C281.338 221.677 281.28 210.452 275.595 204.797C273.072 202.244 270.316 201.055 265.676 200.417C258.918 199.547 253.436 197.952 247.838 195.196C239.311 191.049 233.075 185.799 226.898 177.591C220.865 169.528 216.63 161.262 206.508 137.479C197.372 116.045 190.208 102.79 182.551 93.1025C179.911 89.7671 174.778 84.7494 171.587 82.3711C163.321 76.2513 154.098 73.4379 145.02 74.279Z" fill="black"/>
</svg>
