<svg width="2223" height="570" viewBox="0 0 2223 570" fill="none" xmlns="http://www.w3.org/2000/svg">
<rect width="2223" height="570" fill="#1E1E1E"/>
<path d="M660.48 377V216H691.99V348.25H762.83V377H660.48ZM765.385 377V262H795.745V377H765.385ZM780.565 243.37C775.965 243.37 771.902 241.683 768.375 238.31C764.848 234.783 763.085 230.643 763.085 225.89C763.085 221.137 764.848 217.073 768.375 213.7C771.902 210.173 775.965 208.41 780.565 208.41C785.318 208.41 789.382 210.173 792.755 213.7C796.282 217.073 798.045 221.137 798.045 225.89C798.045 230.643 796.282 234.783 792.755 238.31C789.382 241.683 785.318 243.37 780.565 243.37ZM863.07 379.76C851.11 379.76 840.454 377.23 831.1 372.17C821.747 366.957 814.464 359.827 809.25 350.78C804.037 341.58 801.43 331.153 801.43 319.5C801.43 307.693 804.037 297.267 809.25 288.22C814.464 279.173 821.67 272.12 830.87 267.06C840.07 261.847 850.65 259.24 862.61 259.24C874.11 259.24 884.614 262.077 894.12 267.75C903.627 273.423 910.527 281.627 914.82 292.36L886.3 302.48C884.154 298.033 880.78 294.507 876.18 291.9C871.734 289.14 866.75 287.76 861.23 287.76C855.557 287.76 850.574 289.14 846.28 291.9C841.987 294.507 838.614 298.187 836.16 302.94C833.707 307.693 832.48 313.213 832.48 319.5C832.48 325.787 833.707 331.307 836.16 336.06C838.614 340.66 842.064 344.34 846.51 347.1C850.957 349.86 856.017 351.24 861.69 351.24C867.21 351.24 872.194 349.783 876.64 346.87C881.24 343.957 884.614 340.123 886.76 335.37L915.51 345.49C911.064 356.377 904.087 364.81 894.58 370.79C885.227 376.77 874.724 379.76 863.07 379.76ZM917.327 377V216H947.687V377H917.327ZM993.687 377V318.12H1024.05V377H993.687ZM993.687 318.12C993.687 310.3 992.767 304.243 990.927 299.95C989.087 295.657 986.557 292.59 983.337 290.75C980.117 288.757 976.36 287.76 972.067 287.76C964.247 287.607 958.19 289.983 953.897 294.89C949.757 299.797 947.687 307.08 947.687 316.74H937.567C937.567 304.473 939.33 294.123 942.857 285.69C946.537 277.103 951.597 270.587 958.037 266.14C964.63 261.54 972.297 259.24 981.037 259.24C990.237 259.24 997.98 261.08 1004.27 264.76C1010.71 268.44 1015.61 274.19 1018.99 282.01C1022.36 289.677 1024.05 299.643 1024.05 311.91V318.12H993.687ZM1084.15 379.76C1072.8 379.76 1062.76 377.23 1054.02 372.17C1045.28 366.957 1038.38 359.827 1033.32 350.78C1028.41 341.733 1025.96 331.307 1025.96 319.5C1025.96 307.693 1028.49 297.267 1033.55 288.22C1038.76 279.173 1045.82 272.12 1054.71 267.06C1063.76 261.847 1074.11 259.24 1085.76 259.24C1095.88 259.24 1105.16 261.923 1113.59 267.29C1122.18 272.503 1129 280.247 1134.06 290.52C1139.27 300.64 1141.88 312.983 1141.88 327.55H1054.71L1057.47 324.79C1057.47 330.463 1058.85 335.447 1061.61 339.74C1064.52 343.88 1068.2 347.1 1072.65 349.4C1077.25 351.547 1082.16 352.62 1087.37 352.62C1093.66 352.62 1098.79 351.317 1102.78 348.71C1106.77 345.95 1109.83 342.423 1111.98 338.13L1139.12 348.71C1135.9 355.15 1131.68 360.747 1126.47 365.5C1121.41 370.1 1115.35 373.627 1108.3 376.08C1101.25 378.533 1093.2 379.76 1084.15 379.76ZM1059.08 307.77L1056.32 305.01H1111.75L1109.22 307.77C1109.22 302.25 1107.92 297.88 1105.31 294.66C1102.7 291.287 1099.48 288.833 1095.65 287.3C1091.97 285.767 1088.37 285 1084.84 285C1081.31 285 1077.56 285.767 1073.57 287.3C1069.58 288.833 1066.13 291.287 1063.22 294.66C1060.46 297.88 1059.08 302.25 1059.08 307.77ZM1186.43 379.76C1179.07 379.76 1172.17 378.687 1165.73 376.54C1159.29 374.24 1153.62 371.02 1148.71 366.88C1143.81 362.587 1139.97 357.373 1137.21 351.24L1163.2 339.28C1165.5 342.96 1168.65 346.18 1172.63 348.94C1176.62 351.547 1181.22 352.85 1186.43 352.85C1191.49 352.85 1195.4 352.16 1198.16 350.78C1200.92 349.247 1202.3 347.1 1202.3 344.34C1202.3 341.58 1201.15 339.587 1198.85 338.36C1196.71 336.98 1193.72 335.83 1189.88 334.91L1179.3 332.15C1168.26 329.237 1159.52 324.637 1153.08 318.35C1146.8 311.91 1143.65 304.55 1143.65 296.27C1143.65 284.463 1147.41 275.34 1154.92 268.9C1162.59 262.46 1173.4 259.24 1187.35 259.24C1194.56 259.24 1201.23 260.313 1207.36 262.46C1213.65 264.607 1219.02 267.597 1223.46 271.43C1227.91 275.263 1230.98 279.71 1232.66 284.77L1207.59 296.27C1206.52 293.203 1203.91 290.75 1199.77 288.91C1195.63 286.917 1191.49 285.92 1187.35 285.92C1183.21 285.92 1179.99 286.84 1177.69 288.68C1175.55 290.367 1174.47 292.743 1174.47 295.81C1174.47 297.803 1175.55 299.49 1177.69 300.87C1179.84 302.097 1182.91 303.17 1186.89 304.09L1201.84 307.77C1209.36 309.61 1215.34 312.6 1219.78 316.74C1224.38 320.727 1227.68 325.25 1229.67 330.31C1231.82 335.217 1232.89 340.047 1232.89 344.8C1232.89 351.7 1230.82 357.833 1226.68 363.2C1222.7 368.413 1217.18 372.477 1210.12 375.39C1203.22 378.303 1195.33 379.76 1186.43 379.76ZM1277.25 379.76C1269.89 379.76 1262.99 378.687 1256.55 376.54C1250.11 374.24 1244.43 371.02 1239.53 366.88C1234.62 362.587 1230.79 357.373 1228.03 351.24L1254.02 339.28C1256.32 342.96 1259.46 346.18 1263.45 348.94C1267.43 351.547 1272.03 352.85 1277.25 352.85C1282.31 352.85 1286.22 352.16 1288.98 350.78C1291.74 349.247 1293.12 347.1 1293.12 344.34C1293.12 341.58 1291.97 339.587 1289.67 338.36C1287.52 336.98 1284.53 335.83 1280.7 334.91L1270.12 332.15C1259.08 329.237 1250.34 324.637 1243.9 318.35C1237.61 311.91 1234.47 304.55 1234.47 296.27C1234.47 284.463 1238.22 275.34 1245.74 268.9C1253.4 262.46 1264.21 259.24 1278.17 259.24C1285.37 259.24 1292.04 260.313 1298.18 262.46C1304.46 264.607 1309.83 267.597 1314.28 271.43C1318.72 275.263 1321.79 279.71 1323.48 284.77L1298.41 296.27C1297.33 293.203 1294.73 290.75 1290.59 288.91C1286.45 286.917 1282.31 285.92 1278.17 285.92C1274.03 285.92 1270.81 286.84 1268.51 288.68C1266.36 290.367 1265.29 292.743 1265.29 295.81C1265.29 297.803 1266.36 299.49 1268.51 300.87C1270.65 302.097 1273.72 303.17 1277.71 304.09L1292.66 307.77C1300.17 309.61 1306.15 312.6 1310.6 316.74C1315.2 320.727 1318.49 325.25 1320.49 330.31C1322.63 335.217 1323.71 340.047 1323.71 344.8C1323.71 351.7 1321.64 357.833 1317.5 363.2C1313.51 368.413 1307.99 372.477 1300.94 375.39C1294.04 378.303 1286.14 379.76 1277.25 379.76ZM1352.19 377V244.75H1303.89V216H1431.77V244.75H1383.7V377H1352.19ZM1435.42 316.51C1435.42 304.09 1437.8 293.817 1442.55 285.69C1447.46 277.563 1453.67 271.507 1461.18 267.52C1468.85 263.533 1476.82 261.54 1485.1 261.54V290.98C1478.05 290.98 1471.38 291.823 1465.09 293.51C1458.96 295.197 1453.98 297.957 1450.14 301.79C1446.31 305.623 1444.39 310.53 1444.39 316.51H1435.42ZM1414.03 377V262H1444.39V377H1414.03ZM1537.06 379.76C1525.71 379.76 1515.67 377.23 1506.93 372.17C1498.19 366.957 1491.29 359.827 1486.23 350.78C1481.32 341.733 1478.87 331.307 1478.87 319.5C1478.87 307.693 1481.4 297.267 1486.46 288.22C1491.67 279.173 1498.73 272.12 1507.62 267.06C1516.67 261.847 1527.02 259.24 1538.67 259.24C1548.79 259.24 1558.07 261.923 1566.5 267.29C1575.09 272.503 1581.91 280.247 1586.97 290.52C1592.18 300.64 1594.79 312.983 1594.79 327.55H1507.62L1510.38 324.79C1510.38 330.463 1511.76 335.447 1514.52 339.74C1517.43 343.88 1521.11 347.1 1525.56 349.4C1530.16 351.547 1535.07 352.62 1540.28 352.62C1546.57 352.62 1551.7 351.317 1555.69 348.71C1559.68 345.95 1562.74 342.423 1564.89 338.13L1592.03 348.71C1588.81 355.15 1584.59 360.747 1579.38 365.5C1574.32 370.1 1568.26 373.627 1561.21 376.08C1554.16 378.533 1546.11 379.76 1537.06 379.76ZM1511.99 307.77L1509.23 305.01H1564.66L1562.13 307.77C1562.13 302.25 1560.83 297.88 1558.22 294.66C1555.61 291.287 1552.39 288.833 1548.56 287.3C1544.88 285.767 1541.28 285 1537.75 285C1534.22 285 1530.47 285.767 1526.48 287.3C1522.49 288.833 1519.04 291.287 1516.13 294.66C1513.37 297.88 1511.99 302.25 1511.99 307.77ZM1596.33 377V262H1624.85L1626.69 283.16V377H1596.33ZM1672.46 377V318.12H1702.82V377H1672.46ZM1672.46 318.12C1672.46 310.3 1671.54 304.243 1669.7 299.95C1668.02 295.657 1665.56 292.59 1662.34 290.75C1659.12 288.757 1655.37 287.76 1651.07 287.76C1643.25 287.607 1637.2 289.983 1632.9 294.89C1628.76 299.797 1626.69 307.08 1626.69 316.74H1616.57C1616.57 304.473 1618.34 294.123 1621.86 285.69C1625.54 277.103 1630.6 270.587 1637.04 266.14C1643.64 261.54 1651.3 259.24 1660.04 259.24C1669.09 259.24 1676.83 261.08 1683.27 264.76C1689.71 268.44 1694.62 274.19 1697.99 282.01C1701.37 289.677 1702.98 299.643 1702.82 311.91V318.12H1672.46ZM1792.84 377L1791.23 355.61V216H1821.59V377H1792.84ZM1756.73 379.76C1746.15 379.76 1736.95 377.307 1729.13 372.4C1721.46 367.493 1715.48 360.517 1711.19 351.47C1706.89 342.423 1704.75 331.767 1704.75 319.5C1704.75 307.08 1706.89 296.423 1711.19 287.53C1715.48 278.483 1721.46 271.507 1729.13 266.6C1736.95 261.693 1746.15 259.24 1756.73 259.24C1766.39 259.24 1774.51 261.693 1781.11 266.6C1787.85 271.507 1792.99 278.483 1796.52 287.53C1800.04 296.423 1801.81 307.08 1801.81 319.5C1801.81 331.767 1800.04 342.423 1796.52 351.47C1792.99 360.517 1787.85 367.493 1781.11 372.4C1774.51 377.307 1766.39 379.76 1756.73 379.76ZM1764.55 351.93C1769.76 351.93 1774.36 350.55 1778.35 347.79C1782.49 345.03 1785.71 341.197 1788.01 336.29C1790.31 331.383 1791.46 325.787 1791.46 319.5C1791.46 313.213 1790.31 307.617 1788.01 302.71C1785.71 297.803 1782.49 294.047 1778.35 291.44C1774.36 288.68 1769.68 287.3 1764.32 287.3C1758.8 287.3 1753.97 288.68 1749.83 291.44C1745.69 294.047 1742.39 297.803 1739.94 302.71C1737.48 307.617 1736.26 313.213 1736.26 319.5C1736.26 325.787 1737.48 331.383 1739.94 336.29C1742.39 341.197 1745.69 345.03 1749.83 347.79C1754.12 350.55 1759.03 351.93 1764.55 351.93ZM1874.65 379.76C1867.29 379.76 1860.39 378.687 1853.95 376.54C1847.51 374.24 1841.84 371.02 1836.93 366.88C1832.03 362.587 1828.19 357.373 1825.43 351.24L1851.42 339.28C1853.72 342.96 1856.87 346.18 1860.85 348.94C1864.84 351.547 1869.44 352.85 1874.65 352.85C1879.71 352.85 1883.62 352.16 1886.38 350.78C1889.14 349.247 1890.52 347.1 1890.52 344.34C1890.52 341.58 1889.37 339.587 1887.07 338.36C1884.93 336.98 1881.94 335.83 1878.1 334.91L1867.52 332.15C1856.48 329.237 1847.74 324.637 1841.3 318.35C1835.02 311.91 1831.87 304.55 1831.87 296.27C1831.87 284.463 1835.63 275.34 1843.14 268.9C1850.81 262.46 1861.62 259.24 1875.57 259.24C1882.78 259.24 1889.45 260.313 1895.58 262.46C1901.87 264.607 1907.24 267.597 1911.68 271.43C1916.13 275.263 1919.2 279.71 1920.88 284.77L1895.81 296.27C1894.74 293.203 1892.13 290.75 1887.99 288.91C1883.85 286.917 1879.71 285.92 1875.57 285.92C1871.43 285.92 1868.21 286.84 1865.91 288.68C1863.77 290.367 1862.69 292.743 1862.69 295.81C1862.69 297.803 1863.77 299.49 1865.91 300.87C1868.06 302.097 1871.13 303.17 1875.11 304.09L1890.06 307.77C1897.58 309.61 1903.56 312.6 1908 316.74C1912.6 320.727 1915.9 325.25 1917.89 330.31C1920.04 335.217 1921.11 340.047 1921.11 344.8C1921.11 351.7 1919.04 357.833 1914.9 363.2C1910.92 368.413 1905.4 372.477 1898.34 375.39C1891.44 378.303 1883.55 379.76 1874.65 379.76Z" fill="white"/>
<rect x="303.5" y="153.5" width="284" height="284" stroke="white" stroke-width="13"/>
<path d="M442.02 221.279C432.187 222.178 422.703 227.37 414.64 236.274C405.968 245.845 397.934 260.057 388.072 283.173C375.021 313.83 370.322 322.213 361.099 331.465C351.817 340.804 342.536 345.387 329.194 347.272C324.815 347.91 323.829 348.142 322.059 349.012C316.723 351.623 313.793 357.278 314.199 364.21C314.605 371.374 318.521 376.305 325.134 378.016C327.976 378.77 335.343 378.48 340.216 377.436C347.322 375.928 357.415 372.157 363.738 368.59C370.873 364.587 376.036 360.643 382.156 354.552C390.683 345.996 396.832 337.237 404.228 323.054C407.65 316.499 410.144 310.988 420.035 288.249C428.649 268.439 435.32 257.882 441.149 254.866C442.803 254.024 443.325 253.879 445.21 253.879C448.168 253.879 450.518 255.011 453.215 257.737C459.016 263.596 463.541 272.094 477.114 302.606C493.095 338.571 505.654 355.422 525.232 367.256C536.369 374.014 550.436 378.451 560.53 378.451C566.185 378.451 569.695 377.233 572.74 374.217C578.338 368.677 578.28 357.452 572.595 351.797C570.072 349.244 567.316 348.055 562.676 347.417C555.918 346.547 550.436 344.952 544.838 342.196C536.311 338.049 530.075 332.799 523.898 324.591C517.865 316.528 513.63 308.262 503.508 284.479C494.372 263.045 487.208 249.79 479.551 240.103C476.911 236.767 471.778 231.749 468.587 229.371C460.321 223.251 451.098 220.438 442.02 221.279Z" fill="white"/>
</svg>
